<?xml version="1.0" standalone="no"?>
<!DOCTYPE svg PUBLIC "-//W3C//DTD SVG 20010904//EN"
 "http://www.w3.org/TR/2001/REC-SVG-20010904/DTD/svg10.dtd">
<svg version="1.0" xmlns="http://www.w3.org/2000/svg"
 width="617.000000pt" height="117.000000pt" viewBox="0 0 617.000000 117.000000"
 preserveAspectRatio="xMidYMid meet">

<g transform="translate(0.000000,117.000000) scale(0.100000,-0.100000)"
fill="#ffffff" stroke="none">
<path d="M4941 953 c-45 -22 -57 -33 -77 -77 -23 -50 -24 -58 -24 -321 0 -304
2 -315 65 -315 61 0 65 12 65 195 0 153 1 165 20 175 11 6 31 8 45 4 16 -4 34
0 49 10 63 41 29 106 -56 106 -42 0 -48 3 -54 25 -8 33 2 71 26 95 15 15 34
20 79 20 51 0 62 3 75 22 21 30 20 35 -10 63 -38 35 -128 35 -203 -2z"/>
<path d="M300 942 c-64 -21 -96 -46 -127 -100 -27 -46 -28 -51 -31 -227 -3
-165 -2 -185 18 -238 34 -90 112 -137 228 -137 118 0 212 44 212 99 0 30 -27
61 -52 61 -9 0 -36 -11 -59 -25 -76 -43 -168 -28 -201 33 -9 18 -13 73 -13
194 l0 170 37 34 c49 45 108 47 184 7 50 -26 52 -26 78 -10 33 22 35 65 3 95
-32 30 -130 62 -185 60 -26 0 -67 -8 -92 -16z"/>
<path d="M4052 940 c-22 -21 -22 -24 -22 -340 0 -307 1 -321 20 -340 18 -18
33 -20 193 -20 186 1 207 6 207 52 0 48 -25 57 -160 60 l-125 3 -5 281 c-5
259 -7 284 -24 303 -24 27 -56 27 -84 1z"/>
<path d="M4578 940 c-39 -30 -42 -58 -8 -91 31 -31 49 -35 83 -18 29 16 37 28
37 61 0 29 -40 68 -70 68 -10 0 -29 -9 -42 -20z"/>
<path d="M3684 902 c-31 -21 -35 -55 -33 -280 2 -290 14 -333 98 -368 50 -21
154 -19 174 4 39 43 7 92 -59 92 -70 0 -79 13 -82 135 -3 67 0 111 7 118 6 6
27 10 48 9 72 -3 113 50 72 94 -18 19 -33 24 -70 24 -55 0 -59 6 -59 86 0 41
-5 59 -20 74 -20 20 -56 26 -76 12z"/>
<path d="M860 753 c-14 -2 -29 -9 -34 -14 -6 -5 -17 -9 -26 -9 -28 0 -87 -63
-99 -105 -14 -52 -14 -213 0 -256 28 -82 104 -129 208 -129 104 0 170 34 202
104 21 47 27 223 9 288 -23 81 -153 142 -260 121z m117 -135 c21 -20 23 -30
23 -122 0 -89 -2 -102 -22 -123 -31 -33 -95 -32 -132 2 -27 25 -28 28 -24 126
3 92 5 103 27 120 33 27 98 25 128 -3z"/>
<path d="M1450 753 c-8 -2 -31 -12 -50 -20 -27 -13 -43 -14 -73 -6 -21 6 -47
9 -57 6 -27 -7 -39 -43 -23 -73 9 -18 13 -76 13 -200 0 -200 6 -220 64 -220
61 0 66 16 66 202 0 191 3 198 83 198 67 0 71 -12 75 -212 4 -182 6 -189 62
-190 59 -2 64 13 66 197 1 144 3 168 19 185 28 31 88 27 114 -6 19 -25 21 -40
21 -188 0 -113 4 -166 12 -174 16 -16 83 -15 97 2 15 18 17 376 2 404 -18 33
-79 80 -118 91 -56 16 -76 14 -146 -14 l-63 -25 -49 25 c-48 24 -82 29 -115
18z"/>
<path d="M2255 734 c-46 -19 -64 -23 -77 -15 -28 17 -63 13 -83 -9 -18 -19
-18 -22 -2 -56 15 -30 17 -74 17 -323 0 -266 1 -289 18 -304 23 -21 62 -22 88
-3 16 12 20 30 24 118 5 103 5 103 30 101 122 -9 162 1 208 50 31 33 43 77 47
177 5 102 -13 191 -46 227 -30 32 -95 63 -134 62 -16 0 -57 -11 -90 -25z m121
-115 c16 -18 19 -37 19 -126 0 -98 -2 -106 -24 -124 -26 -22 -100 -26 -119 -7
-8 8 -12 51 -12 127 0 135 8 151 75 151 30 0 47 -6 61 -21z"/>
<path d="M2741 742 c-75 -32 -92 -69 -53 -114 18 -22 29 -22 66 -3 15 8 50 15
77 15 52 0 79 -23 79 -67 0 -22 -4 -23 -77 -23 -83 0 -140 -15 -172 -44 -21
-19 -40 -80 -36 -117 1 -13 3 -32 4 -41 2 -26 50 -77 88 -93 47 -20 124 -19
184 2 45 16 49 16 67 0 27 -25 108 -23 122 2 13 25 5 46 -25 65 -22 15 -23 21
-27 163 -2 126 -6 153 -23 183 -43 73 -182 110 -274 72z m167 -294 c18 -18 14
-49 -10 -75 -16 -17 -32 -23 -66 -23 -72 0 -105 48 -65 92 19 21 121 26 141 6z"/>
<path d="M3325 751 c-62 -16 -108 -49 -131 -93 -22 -43 -22 -283 -1 -325 31
-59 101 -93 191 -93 103 0 175 42 162 95 -10 39 -48 52 -92 32 -63 -30 -116
-21 -139 24 -23 44 -20 176 5 217 18 29 25 32 65 32 25 0 59 -7 75 -15 58 -30
117 29 75 75 -40 45 -141 69 -210 51z"/>
<path d="M4580 740 c-19 -19 -20 -33 -20 -243 0 -204 2 -225 18 -240 23 -21
61 -21 87 -1 19 14 20 27 20 240 0 225 0 226 -24 245 -30 24 -56 24 -81 -1z"/>
<path d="M5325 736 c-96 -46 -114 -85 -115 -246 0 -148 21 -193 108 -231 134
-58 354 21 280 100 -22 25 -55 27 -94 6 -46 -24 -116 -20 -142 8 -26 27 -28
52 -6 61 9 3 45 6 80 6 35 0 74 5 87 12 12 6 29 14 37 18 8 4 25 22 38 40 27
41 29 99 3 156 -37 81 -179 117 -276 70z m159 -108 c10 -23 11 -40 4 -60 -11
-32 -35 -41 -99 -36 -43 3 -44 4 -47 39 -5 55 28 89 84 89 41 0 46 -3 58 -32z"/>
<path d="M5812 742 c-68 -28 -94 -61 -100 -126 -7 -87 21 -116 158 -163 77
-26 97 -55 61 -87 -22 -20 -87 -19 -148 2 -27 9 -36 7 -58 -10 -68 -54 16
-118 155 -118 124 0 190 52 190 149 0 70 -38 112 -135 147 -78 28 -109 52 -99
77 11 30 45 32 165 11 33 -5 37 -3 49 25 18 44 -4 73 -70 94 -65 21 -113 21
-168 -1z"/>
</g>
</svg>
