<?xml version="1.0" standalone="no"?>
<!DOCTYPE svg PUBLIC "-//W3C//DTD SVG 20010904//EN"
 "http://www.w3.org/TR/2001/REC-SVG-20010904/DTD/svg10.dtd">
<svg version="1.0" xmlns="http://www.w3.org/2000/svg"
 width="512.000000pt" height="512.000000pt" viewBox="0 0 512.000000 512.000000"
 preserveAspectRatio="xMidYMid meet">

<g transform="translate(0.000000,512.000000) scale(0.100000,-0.100000)"
fill="#000000" stroke="none">
<path d="M1845 5100 c-32 -16 -74 -67 -209 -252 -93 -128 -176 -249 -184 -269
-9 -24 -12 -51 -8 -73 7 -37 45 -89 76 -106 33 -18 561 -140 604 -140 87 0
154 79 141 165 -8 54 -57 112 -104 121 -17 4 -31 10 -31 14 0 4 39 15 88 24
465 83 918 21 1337 -183 222 -109 384 -222 559 -391 256 -248 436 -533 545
-867 89 -269 116 -459 108 -752 -7 -274 -48 -480 -143 -721 -195 -491 -541
-876 -1016 -1130 -114 -60 -138 -90 -138 -169 0 -46 4 -56 38 -93 34 -36 45
-42 93 -45 49 -4 62 -1 144 43 566 298 982 779 1190 1375 89 256 126 462 132
744 8 318 -26 551 -123 845 -54 163 -187 438 -279 575 -395 590 -999 971
-1715 1082 -85 13 -173 18 -340 17 -225 0 -345 -12 -508 -49 -93 -22 -97 -21
-71 16 90 127 -48 291 -186 219z"/>
<path d="M401 4034 c-151 -40 -280 -162 -332 -311 -36 -104 -18 -179 53 -224
52 -32 128 -22 174 21 20 20 39 51 45 75 27 104 104 161 209 153 70 -5 123
-40 154 -103 57 -115 3 -216 -424 -790 -180 -241 -184 -248 -184 -304 0 -64
28 -110 84 -138 44 -23 50 -23 415 -23 341 0 373 1 405 19 48 26 72 62 77 118
6 65 -20 111 -77 141 -42 21 -56 22 -256 22 l-213 0 152 210 c272 376 326 481
335 642 2 49 -1 108 -7 133 -43 170 -178 308 -350 359 -67 20 -187 20 -260 0z"/>
<path d="M1820 4034 c-93 -40 -126 -86 -365 -504 -272 -476 -295 -521 -295
-571 0 -51 26 -99 67 -126 24 -16 59 -19 313 -23 l285 -5 -4 -126 c-3 -109 -1
-132 17 -171 37 -84 118 -116 196 -79 73 36 80 54 86 226 5 140 6 150 25 153
51 7 67 14 100 43 39 35 58 89 49 139 -10 49 -70 106 -121 115 l-42 7 -3 376
c-3 361 -4 379 -24 422 -56 117 -177 170 -284 124z m7 -921 c-3 -2 -63 -2
-134 -1 l-130 3 131 230 131 230 3 -229 c1 -126 1 -231 -1 -233z"/>
<path d="M2825 3340 c-17 -5 -43 -22 -58 -38 -38 -40 -577 -1393 -577 -1449 0
-75 68 -143 143 -143 49 0 101 24 122 56 9 14 140 336 291 717 240 602 275
697 271 731 -12 91 -105 152 -192 126z"/>
<path d="M3080 2482 c-37 -20 -80 -89 -80 -129 0 -41 27 -89 66 -119 l37 -29
277 -5 277 -5 -253 -575 c-139 -316 -254 -588 -254 -603 0 -67 59 -140 125
-153 44 -8 95 9 128 44 31 32 627 1378 634 1432 6 49 -31 118 -77 142 -32 17
-67 18 -440 18 -373 0 -408 -1 -440 -18z"/>
<path d="M340 2020 c-41 -12 -70 -33 -92 -68 -29 -47 -21 -118 32 -273 81
-238 117 -285 216 -277 66 6 108 35 130 94 20 53 24 34 -64 292 -33 94 -65
179 -73 188 -29 35 -104 57 -149 44z"/>
<path d="M793 1090 c-71 -32 -103 -117 -73 -196 16 -40 266 -290 315 -314 52
-25 78 -25 131 1 69 33 103 124 70 188 -8 15 -80 93 -161 174 -173 174 -197
186 -282 147z"/>
<path d="M1620 471 c-55 -29 -75 -64 -75 -129 0 -78 22 -107 110 -148 109 -50
312 -114 362 -114 112 0 181 117 129 219 -23 43 -46 56 -172 96 -60 19 -143
48 -183 65 -85 35 -123 37 -171 11z"/>
<path d="M2944 324 c-39 -7 -121 -17 -181 -22 -89 -7 -116 -13 -142 -31 -90
-64 -79 -203 19 -254 30 -16 50 -17 135 -12 148 9 305 34 347 56 43 22 78 80
78 130 0 49 -38 106 -85 129 -46 22 -69 23 -171 4z"/>
</g>
</svg>
