<?xml version="1.0" standalone="no"?>
<!DOCTYPE svg PUBLIC "-//W3C//DTD SVG 20010904//EN"
 "http://www.w3.org/TR/2001/REC-SVG-20010904/DTD/svg10.dtd">
<svg version="1.0" xmlns="http://www.w3.org/2000/svg"
 width="617.000000pt" height="117.000000pt" viewBox="0 0 617.000000 117.000000"
 preserveAspectRatio="xMidYMid meet">

<g transform="translate(0.000000,117.000000) scale(0.100000,-0.100000)"
fill="#000000" stroke="none">
<path d="M4940 952 c-44 -21 -60 -36 -77 -72 -22 -43 -23 -54 -23 -326 l0
-283 25 -20 c26 -20 70 -20 90 0 6 5 12 87 15 182 l5 172 51 5 c82 8 115 52
73 96 -18 19 -33 24 -71 24 -42 0 -48 3 -54 25 -8 33 2 71 26 95 15 15 34 20
79 20 51 0 62 3 75 22 21 30 20 35 -10 63 -39 36 -128 35 -204 -3z"/>
<path d="M291 940 c-68 -25 -116 -70 -136 -128 -22 -66 -21 -370 1 -435 47
-139 277 -189 412 -90 37 28 43 70 14 96 -25 23 -44 21 -96 -8 -90 -50 -181
-22 -207 64 -7 22 -10 93 -7 181 2 118 6 150 21 171 37 55 115 64 200 23 52
-26 55 -26 80 -9 34 22 36 63 4 93 -31 29 -130 62 -186 62 -25 -1 -71 -10
-100 -20z"/>
<path d="M4049 941 l-24 -19 0 -321 c0 -313 0 -321 21 -342 20 -19 32 -21 192
-22 177 -1 190 2 212 44 7 12 4 24 -11 43 -19 25 -24 25 -147 28 l-127 3 -5
283 c-5 283 -5 284 -29 303 -29 24 -53 24 -82 0z"/>
<path d="M4569 931 c-16 -16 -29 -35 -29 -41 0 -17 56 -70 75 -70 20 0 57 19
67 34 17 24 8 65 -18 85 -36 28 -60 26 -95 -8z"/>
<path d="M3669 889 c-20 -20 -20 -29 -17 -282 3 -295 6 -305 80 -347 53 -29
157 -33 187 -6 46 41 14 96 -57 96 -71 0 -84 27 -80 165 l3 90 54 5 c53 6 91
32 91 64 0 28 -45 55 -95 58 l-50 3 -5 73 c-4 58 -9 77 -24 88 -28 20 -63 17
-87 -7z"/>
<path d="M830 744 c-60 -21 -104 -55 -124 -97 -25 -54 -23 -254 4 -307 34 -67
108 -104 204 -103 101 2 186 52 206 121 13 48 13 226 0 274 -13 46 -65 90
-132 112 -62 20 -100 20 -158 0z m145 -129 c23 -22 25 -32 25 -120 0 -88 -2
-98 -25 -120 -35 -36 -97 -35 -130 1 -23 25 -25 35 -25 119 0 84 2 94 25 119
33 36 95 37 130 1z"/>
<path d="M1407 738 c-40 -18 -54 -19 -83 -10 -26 8 -43 8 -60 0 -27 -13 -41
-45 -25 -61 7 -7 11 -72 12 -181 1 -170 4 -193 25 -230 15 -25 67 -26 94 -1
19 17 20 30 20 185 0 194 4 204 81 198 63 -4 69 -22 69 -200 0 -160 8 -193 47
-201 79 -15 94 21 92 219 -1 175 2 183 73 184 63 0 72 -25 78 -219 l5 -166 27
-12 c32 -16 75 -3 86 26 4 11 5 103 2 205 l-5 185 -33 34 c-58 59 -163 82
-230 48 -64 -33 -65 -33 -117 -6 -60 30 -95 31 -158 3z"/>
<path d="M2252 734 c-40 -18 -58 -22 -72 -14 -30 16 -65 12 -85 -10 -18 -20
-18 -24 -3 -63 12 -34 16 -95 16 -321 2 -306 4 -316 62 -316 55 0 65 19 70
132 5 96 6 103 25 100 11 -2 43 -4 72 -4 139 -2 204 99 190 295 -9 126 -33
172 -112 208 -53 25 -99 23 -163 -7z m118 -114 c17 -17 20 -33 20 -125 0 -122
-12 -145 -76 -145 -70 0 -74 7 -74 137 0 94 3 120 17 135 23 25 87 24 113 -2z"/>
<path d="M2750 744 c-64 -22 -93 -53 -84 -88 10 -40 43 -52 87 -31 52 24 115
17 140 -17 33 -45 18 -58 -65 -58 -112 0 -169 -26 -195 -87 -25 -61 -9 -147
34 -184 51 -44 147 -54 227 -24 41 16 48 16 68 3 52 -34 115 -28 129 10 7 19
3 28 -20 50 l-29 27 -4 145 c-3 124 -6 150 -24 180 -42 73 -168 108 -264 74z
m158 -318 c5 -42 -31 -76 -81 -76 -67 0 -95 40 -61 88 14 20 23 23 77 20 60
-3 62 -4 65 -32z"/>
<path d="M3300 744 c-59 -21 -108 -69 -121 -118 -6 -22 -9 -93 -7 -157 3 -109
5 -118 31 -152 41 -54 94 -78 175 -78 37 0 83 6 102 15 73 30 91 86 38 115
-24 14 -30 14 -63 -2 -54 -26 -101 -22 -130 9 -23 24 -25 35 -25 116 0 75 3
95 21 119 16 23 28 29 58 29 21 0 56 -7 76 -16 47 -19 81 -7 91 31 18 72 -136
128 -246 89z"/>
<path d="M4576 741 c-16 -17 -18 -44 -17 -241 0 -229 2 -239 43 -261 23 -13
74 15 82 45 3 12 6 112 6 222 0 189 -1 203 -21 228 -25 31 -68 35 -93 7z"/>
<path d="M5335 742 c-69 -29 -82 -40 -104 -85 -18 -37 -21 -62 -21 -164 0
-162 15 -191 123 -245 27 -13 151 -11 194 3 50 17 83 47 83 75 0 49 -57 69
-110 39 -41 -23 -113 -19 -138 8 -26 27 -28 52 -6 61 9 3 46 6 82 6 80 1 127
21 159 69 27 39 31 107 9 149 -45 86 -173 126 -271 84z m143 -107 c16 -35 15
-56 -4 -83 -14 -20 -23 -23 -72 -20 l-57 3 -3 36 c-5 54 28 89 82 89 36 0 45
-4 54 -25z"/>
<path d="M5805 741 c-66 -25 -95 -67 -95 -137 0 -80 32 -110 169 -156 58 -19
77 -45 55 -76 -19 -27 -69 -29 -138 -6 -46 16 -48 16 -72 -7 -65 -61 10 -120
151 -120 129 0 195 50 195 147 0 47 -4 59 -32 89 -22 24 -56 44 -103 61 -38
13 -79 33 -89 44 -19 19 -19 20 -1 40 20 22 44 23 145 5 48 -9 79 22 64 63
-21 60 -155 88 -249 53z"/>
</g>
</svg>
