<?xml version="1.0" standalone="no"?>
<!DOCTYPE svg PUBLIC "-//W3C//DTD SVG 20010904//EN"
 "http://www.w3.org/TR/2001/REC-SVG-20010904/DTD/svg10.dtd">
<svg version="1.0" xmlns="http://www.w3.org/2000/svg"
 width="426.000000pt" height="386.000000pt" viewBox="0 0 426.000000 386.000000"
 preserveAspectRatio="xMidYMid meet">

<g transform="translate(0.000000,386.000000) scale(0.100000,-0.100000)"
fill="#000000" stroke="none">
<path d="M2027 3520 c-65 -23 -142 -83 -172 -134 -13 -22 -33 -75 -44 -116
-17 -66 -18 -78 -6 -97 17 -25 62 -37 104 -28 37 8 47 20 56 70 9 54 40 111
70 131 38 25 134 30 178 10 41 -20 84 -77 93 -124 9 -47 -11 -89 -80 -162 -96
-101 -121 -139 -135 -205 -15 -67 -34 -89 -169 -193 -163 -127 -192 -150 -271
-212 -45 -36 -119 -94 -165 -130 -46 -36 -103 -81 -127 -100 -54 -44 -158
-126 -264 -208 -92 -72 -158 -125 -266 -214 -42 -35 -114 -90 -159 -123 -91
-66 -127 -104 -136 -142 -14 -55 44 -101 107 -83 17 5 54 29 82 53 29 24 79
63 112 87 33 24 101 76 150 115 282 226 988 784 1049 830 96 73 96 73 162 17
36 -31 159 -129 305 -242 31 -25 103 -81 159 -125 56 -44 125 -98 154 -120 29
-22 106 -82 172 -134 309 -245 361 -284 404 -306 19 -10 79 -53 133 -96 84
-68 103 -79 136 -79 41 0 64 18 74 59 15 60 -20 95 -285 293 -27 20 -66 51
-86 70 -21 18 -73 60 -117 93 -89 68 -222 173 -308 243 -33 26 -83 65 -113 87
-45 34 -147 114 -300 235 -18 14 -60 47 -95 73 -74 57 -145 115 -170 139 -14
13 -16 26 -12 55 7 46 27 75 115 172 95 104 112 142 106 244 -6 103 -35 164
-111 233 -88 81 -214 105 -330 64z"/>
</g>
</svg>
