<?xml version="1.0" standalone="no"?>
<!DOCTYPE svg PUBLIC "-//W3C//DTD SVG 20010904//EN"
 "http://www.w3.org/TR/2001/REC-SVG-20010904/DTD/svg10.dtd">
<svg version="1.0" xmlns="http://www.w3.org/2000/svg"
 width="626.000000pt" height="626.000000pt" viewBox="0 0 626.000000 626.000000"
 preserveAspectRatio="xMidYMid meet">

<g transform="translate(0.000000,626.000000) scale(0.100000,-0.100000)"
fill="#000000" stroke="none">
<path d="M5086 5734 c-26 -25 -20 -63 13 -82 l29 -16 -81 -54 c-112 -75 -278
-245 -341 -350 -64 -107 -112 -238 -133 -358 -13 -82 -14 -114 -5 -201 7 -57
16 -112 22 -123 21 -39 81 -33 95 9 3 11 1 48 -5 83 -16 100 -12 178 14 281
43 169 120 302 251 432 79 79 249 204 261 192 3 -3 -1 -27 -10 -53 -20 -59
-20 -78 0 -98 22 -23 60 -20 78 6 23 32 88 234 84 259 -5 36 -51 61 -135 75
-103 17 -119 17 -137 -2z"/>
<path d="M2845 5718 c-29 -16 -87 -71 -176 -170 -61 -68 -79 -94 -79 -118 0
-34 29 -55 63 -46 12 3 53 42 91 86 39 44 73 80 77 80 21 0 -44 -217 -96 -319
-50 -99 -57 -106 -85 -91 -63 34 -192 4 -239 -56 -46 -58 -35 -141 22 -171 46
-23 135 -14 186 20 22 15 44 27 47 27 4 0 4 -16 1 -36 -24 -149 -229 -313
-435 -348 -94 -16 -112 -27 -112 -67 0 -45 33 -56 128 -40 103 17 190 53 289
117 175 116 263 272 233 413 -12 56 -12 56 27 121 22 36 51 93 67 128 29 65
76 238 76 278 0 48 20 31 72 -62 60 -109 85 -133 123 -116 41 19 32 59 -42
193 -79 141 -124 189 -181 189 -20 0 -46 -6 -57 -12z m-275 -678 c0 -5 -2 -10
-4 -10 -2 0 -20 -7 -41 -16 -28 -12 -36 -12 -33 -2 9 25 78 50 78 28z"/>
<path d="M1856 5704 c-24 -24 -19 -52 19 -105 19 -27 31 -49 27 -49 -5 0 -46
10 -92 21 -69 18 -104 21 -199 17 -134 -6 -216 -31 -308 -97 l-56 -39 -36 23
c-86 55 -197 59 -297 10 -69 -34 -173 -129 -226 -208 -106 -157 -188 -399
-217 -647 -23 -197 -23 -188 -1 -210 25 -25 45 -25 69 -1 14 14 21 46 30 132
26 240 87 455 173 606 52 93 155 201 220 231 57 26 126 28 174 6 19 -9 34 -18
34 -20 0 -2 -18 -31 -40 -65 -96 -148 -109 -360 -27 -428 26 -21 75 -30 111
-20 46 13 109 84 132 150 27 78 25 225 -4 298 -26 66 -22 72 68 120 78 42 187
65 265 56 67 -7 176 -33 188 -44 4 -4 -30 -18 -75 -30 -96 -27 -108 -34 -108
-70 0 -61 31 -64 196 -17 154 43 167 49 193 82 37 47 33 61 -71 206 -80 112
-106 129 -142 92z m-599 -518 c7 -78 -9 -149 -44 -194 -24 -31 -27 -33 -42
-18 -35 36 -10 188 45 272 24 35 35 18 41 -60z"/>
<path d="M4086 5686 c-74 -39 -417 -263 -428 -280 -21 -32 6 -76 47 -76 13 0
81 38 151 84 71 47 130 83 133 80 3 -2 -13 -23 -36 -47 -205 -214 -391 -558
-470 -872 -22 -86 -24 -109 -15 -130 13 -29 61 -35 81 -11 7 8 25 64 41 124
83 316 256 625 478 852 l73 75 -8 -85 c-13 -140 -10 -211 8 -223 21 -13 65 -1
74 20 3 10 15 90 25 178 31 252 26 310 -27 334 -37 17 -56 14 -127 -23z"/>
<path d="M5578 5559 c-16 -9 -17 -23 -12 -132 6 -104 3 -135 -15 -211 -36
-150 -124 -314 -234 -433 -57 -62 -212 -173 -242 -173 -4 0 10 20 29 44 53 64
46 116 -16 116 -50 0 -187 -182 -188 -250 0 -52 41 -92 151 -146 87 -42 124
-42 135 1 10 38 -1 52 -62 83 l-57 29 68 32 c292 136 521 481 542 816 11 172
-30 265 -99 224z"/>
<path d="M5451 4231 c-39 -39 -22 -76 42 -91 32 -8 32 -8 7 -16 -51 -15 -188
-92 -249 -139 -35 -26 -86 -78 -113 -116 l-49 -67 -67 -4 c-128 -7 -242 -84
-304 -204 -30 -60 -35 -64 -58 -57 -14 4 -68 8 -120 8 -87 0 -101 -3 -165 -34
-104 -51 -210 -160 -264 -273 -22 -48 -41 -98 -41 -112 0 -42 43 -70 76 -48 6
4 33 50 59 102 94 187 253 291 395 259 57 -13 66 -21 74 -68 9 -56 49 -101 90
-101 68 0 88 77 40 157 l-25 44 24 53 c44 95 136 165 220 166 l37 0 0 -48 c0
-62 27 -112 74 -135 69 -35 136 8 136 87 0 56 -11 85 -49 128 -29 33 -29 36
-14 59 31 47 109 120 169 160 56 36 219 109 245 109 6 0 1 -16 -11 -35 -49
-80 -53 -93 -36 -120 20 -30 58 -33 83 -5 29 30 101 171 108 212 9 47 -15 98
-57 123 -24 14 -58 20 -134 23 -93 4 -103 3 -123 -17z"/>
<path d="M3134 4122 c-183 -65 -318 -299 -355 -613 -11 -102 -8 -317 6 -352 9
-22 47 -32 73 -18 18 10 20 25 25 213 6 216 17 286 71 418 49 120 126 214 202
246 132 55 265 -74 320 -311 19 -81 28 -355 12 -370 -4 -4 -21 9 -38 29 -47
53 -110 47 -110 -10 0 -28 95 -151 139 -181 40 -27 98 -30 147 -7 18 9 67 45
109 80 60 52 75 70 75 92 0 70 -52 69 -138 -3 -37 -30 -69 -55 -72 -55 -3 0
-2 44 3 98 11 118 -3 293 -34 402 -72 260 -257 406 -435 342z"/>
<path d="M853 4041 c-154 -40 -298 -186 -377 -385 -51 -127 -68 -211 -73 -372
-5 -145 -5 -152 16 -173 25 -25 40 -26 67 -7 17 13 20 32 25 173 6 130 12 174
33 248 54 181 160 331 272 386 64 30 155 37 209 15 49 -21 105 -58 105 -70 0
-5 -12 -24 -26 -43 -69 -91 -107 -249 -85 -354 47 -223 261 -231 327 -13 27
92 11 252 -36 344 -11 22 -20 42 -20 44 0 16 72 39 120 40 167 1 293 -158 366
-459 37 -154 35 -156 -60 -84 -44 32 -90 59 -102 59 -44 0 -69 -48 -41 -82 19
-24 157 -123 204 -147 72 -36 111 -37 164 -3 58 38 85 72 149 196 53 102 61
149 29 169 -9 5 -28 7 -42 3 -22 -5 -37 -26 -78 -109 -80 -160 -78 -160 -110
-15 -66 298 -171 473 -328 547 -48 22 -69 26 -151 26 -78 0 -103 -4 -142 -23
l-46 -23 -49 37 c-26 20 -68 46 -92 57 -48 21 -176 31 -228 18z m376 -343 c25
-72 28 -192 7 -241 -7 -18 -23 -40 -34 -51 -19 -16 -24 -17 -38 -5 -63 52 -57
218 10 320 15 21 28 39 30 39 2 0 14 -28 25 -62z"/>
<path d="M1776 2818 c-43 -16 -256 -157 -263 -174 -10 -26 7 -63 31 -70 25 -6
69 14 146 65 24 17 46 28 48 26 5 -5 -84 -243 -144 -385 -24 -58 -57 -121 -72
-139 l-28 -34 -32 50 c-17 27 -66 130 -107 228 -115 274 -141 315 -197 315
-64 0 -85 -57 -119 -315 -12 -93 -25 -179 -29 -190 -6 -16 -33 32 -123 215
-63 130 -130 252 -148 273 -64 71 -133 54 -158 -40 -13 -47 -29 -310 -32 -515
-3 -157 3 -178 46 -178 50 0 54 16 65 315 6 153 15 286 20 294 6 11 43 -55
133 -239 68 -140 133 -263 144 -272 11 -10 33 -21 50 -24 25 -5 37 -1 57 19
35 35 53 107 78 302 12 94 24 174 28 178 4 4 35 -61 70 -145 101 -246 151
-332 212 -364 106 -55 178 40 324 430 25 66 48 126 53 133 5 9 19 -16 40 -72
33 -88 53 -108 93 -97 40 10 41 38 4 150 -19 59 -42 132 -50 162 -24 86 -76
122 -140 98z"/>
<path d="M4232 2802 c-74 -38 -201 -141 -208 -168 -3 -12 -1 -32 6 -43 19 -36
60 -27 130 30 78 62 109 83 115 77 9 -9 -42 -192 -74 -267 -65 -152 -179 -288
-283 -336 -140 -65 -215 -9 -356 261 -100 192 -163 280 -245 338 -85 60 -165
86 -270 86 -96 0 -164 -18 -258 -66 -190 -100 -353 -318 -424 -568 -29 -102
-31 -148 -9 -170 37 -38 77 -8 94 69 57 263 213 486 404 580 167 82 312 65
436 -51 60 -56 108 -130 188 -290 74 -146 138 -236 199 -274 252 -160 585 123
689 588 10 45 22 81 27 79 4 -1 31 -38 60 -82 42 -65 58 -81 80 -83 35 -4 57
13 57 44 0 26 -61 131 -116 200 -63 79 -148 95 -242 46z"/>
<path d="M5420 2810 c-44 -11 -177 -66 -207 -86 -25 -16 -31 -62 -11 -82 19
-19 54 -14 124 18 36 16 64 26 62 21 -2 -4 -43 -42 -93 -83 -110 -91 -279
-244 -482 -436 -158 -149 -173 -171 -137 -206 8 -9 25 -16 36 -16 21 0 34 12
319 277 194 179 429 383 442 383 5 0 7 -15 3 -32 -25 -145 -16 -174 55 -169
22 1 37 40 49 126 26 183 7 264 -67 284 -43 12 -45 12 -93 1z"/>
<path d="M4971 1774 c-37 -31 -72 -87 -107 -173 -27 -69 -25 -96 11 -113 34
-15 59 3 86 66 13 31 28 56 33 56 16 0 -3 -215 -28 -313 -30 -118 -48 -153
-82 -161 -67 -17 -111 -76 -92 -125 12 -33 25 -41 67 -41 22 0 47 10 69 26 43
33 54 21 49 -53 -5 -72 -53 -147 -162 -254 -84 -83 -89 -90 -79 -116 8 -23 16
-29 46 -31 34 -3 42 3 130 90 71 71 102 111 131 168 60 119 62 220 7 283 l-29
33 24 66 c36 100 56 226 57 359 0 65 3 119 6 119 2 0 24 -18 48 -40 51 -47 86
-52 109 -16 15 22 15 28 2 53 -16 31 -100 105 -144 129 -46 24 -117 18 -152
-12z"/>
<path d="M1816 1678 c-8 -13 -38 -78 -65 -145 -116 -282 -225 -461 -365 -598
-129 -127 -248 -185 -377 -185 -117 0 -228 70 -259 165 -40 121 41 284 193
387 59 40 215 118 236 118 6 0 -9 -40 -34 -90 -48 -96 -54 -129 -29 -154 39
-39 68 -11 139 134 46 96 60 135 63 181 4 56 3 60 -29 92 -41 41 -103 57 -218
57 -65 0 -81 -3 -96 -20 -23 -26 -13 -68 21 -80 14 -6 53 -10 87 -10 l62 -1
-101 -48 c-195 -93 -307 -191 -372 -328 -34 -73 -37 -84 -37 -168 1 -74 5 -99
25 -140 77 -158 274 -238 465 -190 291 74 519 340 735 858 45 107 52 132 44
155 -13 37 -66 44 -88 10z"/>
<path d="M3300 1592 c-19 -9 -77 -57 -127 -106 -72 -68 -93 -95 -93 -115 0
-34 17 -51 49 -51 17 0 44 18 83 57 32 32 58 52 58 45 0 -29 -87 -246 -141
-352 -94 -184 -185 -290 -250 -290 -40 0 -86 44 -160 153 -109 158 -173 217
-261 236 -166 38 -343 -143 -433 -442 -25 -82 -26 -90 -11 -113 16 -24 49 -31
73 -16 7 5 29 57 48 118 44 134 97 225 170 292 72 66 108 74 169 38 45 -26 78
-65 189 -222 102 -143 188 -183 293 -135 132 60 280 295 390 618 21 60 40 112
44 116 4 4 22 -44 40 -109 27 -94 38 -118 57 -127 34 -15 73 5 73 39 0 36 -66
268 -90 314 -11 21 -30 46 -42 54 -29 21 -84 20 -128 -2z"/>
<path d="M4076 1578 c-14 -19 -16 -77 -16 -426 0 -222 -4 -401 -8 -398 -5 3
-21 37 -36 75 -29 73 -46 88 -92 77 -42 -11 -39 -42 20 -186 62 -150 93 -190
149 -190 17 0 37 4 43 8 17 11 86 116 159 244 74 129 79 162 28 174 -37 10
-52 -3 -105 -92 l-48 -79 0 396 c0 294 -3 398 -12 407 -20 20 -65 14 -82 -10z"/>
<path d="M5515 1566 c-34 -15 -137 -122 -161 -167 -17 -35 -11 -64 17 -80 29
-15 53 -3 93 48 23 29 37 41 40 32 2 -8 7 -200 10 -428 4 -279 10 -419 17
-428 18 -21 67 -16 80 8 8 16 10 143 7 460 -2 242 0 439 4 439 4 0 40 -36 80
-80 74 -81 106 -98 136 -68 26 26 12 63 -54 140 -108 127 -183 162 -269 124z"/>
</g>
</svg>
